<svg id="visual" viewBox="0 0 900 600" width="900" height="600" xmlns="http://www.w3.org/2000/svg" xmlns:xlink="http://www.w3.org/1999/xlink" version="1.1"><path d="M0 372L21.5 377.8C43 383.7 86 395.3 128.8 401.5C171.7 407.7 214.3 408.3 257.2 414.3C300 420.3 343 431.7 385.8 426.3C428.7 421 471.3 399 514.2 386.8C557 374.7 600 372.3 642.8 369.8C685.7 367.3 728.3 364.7 771.2 375.8C814 387 857 412 878.5 424.5L900 437L900 601L878.5 601C857 601 814 601 771.2 601C728.3 601 685.7 601 642.8 601C600 601 557 601 514.2 601C471.3 601 428.7 601 385.8 601C343 601 300 601 257.2 601C214.3 601 171.7 601 128.8 601C86 601 43 601 21.5 601L0 601Z" fill="#4e6190"></path><path d="M0 458L21.5 451.7C43 445.3 86 432.7 128.8 424.7C171.7 416.7 214.3 413.3 257.2 423.2C300 433 343 456 385.8 466.3C428.7 476.7 471.3 474.3 514.2 471C557 467.7 600 463.3 642.8 455.7C685.7 448 728.3 437 771.2 428C814 419 857 412 878.5 408.5L900 405L900 601L878.5 601C857 601 814 601 771.2 601C728.3 601 685.7 601 642.8 601C600 601 557 601 514.2 601C471.3 601 428.7 601 385.8 601C343 601 300 601 257.2 601C214.3 601 171.7 601 128.8 601C86 601 43 601 21.5 601L0 601Z" fill="#7a85ab"></path><path d="M0 439L21.5 440.3C43 441.7 86 444.3 128.8 454.5C171.7 464.7 214.3 482.3 257.2 485.7C300 489 343 478 385.8 478.2C428.7 478.3 471.3 489.7 514.2 494.7C557 499.7 600 498.3 642.8 499.2C685.7 500 728.3 503 771.2 504.7C814 506.3 857 506.7 878.5 506.8L900 507L900 601L878.5 601C857 601 814 601 771.2 601C728.3 601 685.7 601 642.8 601C600 601 557 601 514.2 601C471.3 601 428.7 601 385.8 601C343 601 300 601 257.2 601C214.3 601 171.7 601 128.8 601C86 601 43 601 21.5 601L0 601Z" fill="#a6acc7"></path><path d="M0 486L21.5 493.2C43 500.3 86 514.7 128.8 521C171.7 527.3 214.3 525.7 257.2 526.8C300 528 343 532 385.8 535C428.7 538 471.3 540 514.2 539.3C557 538.7 600 535.3 642.8 529.5C685.7 523.7 728.3 515.3 771.2 513.3C814 511.3 857 515.7 878.5 517.8L900 520L900 601L878.5 601C857 601 814 601 771.2 601C728.3 601 685.7 601 642.8 601C600 601 557 601 514.2 601C471.3 601 428.7 601 385.8 601C343 601 300 601 257.2 601C214.3 601 171.7 601 128.8 601C86 601 43 601 21.5 601L0 601Z" fill="#d2d5e3"></path><path d="M0 571L21.5 567.8C43 564.7 86 558.3 128.8 556.8C171.7 555.3 214.3 558.7 257.2 554.5C300 550.3 343 538.7 385.8 533.8C428.7 529 471.3 531 514.2 537.3C557 543.7 600 554.3 642.8 555.8C685.7 557.3 728.3 549.7 771.2 547.3C814 545 857 548 878.5 549.5L900 551L900 601L878.5 601C857 601 814 601 771.2 601C728.3 601 685.7 601 642.8 601C600 601 557 601 514.2 601C471.3 601 428.7 601 385.8 601C343 601 300 601 257.2 601C214.3 601 171.7 601 128.8 601C86 601 43 601 21.5 601L0 601Z" fill="#ffffff"></path></svg>